<svg width="360" height="360" viewBox="0 0 360 360" xmlns="http://www.w3.org/2000/svg" role="img" aria-label="Study Guardian mascot">
  <defs>
    <linearGradient id="bg" x1="0" y1="0" x2="1" y2="1">
      <stop offset="0%" stop-color="#0f1f35"/>
      <stop offset="100%" stop-color="#0a1422"/>
    </linearGradient>
    <linearGradient id="frame" x1="0" y1="0" x2="1" y2="1">
      <stop offset="0%" stop-color="#2ac6a1"/>
      <stop offset="100%" stop-color="#f2c14f"/>
    </linearGradient>
    <linearGradient id="shine" x1="0" y1="0" x2="1" y2="1">
      <stop offset="0%" stop-color="#2ac6a1" stop-opacity="0.8"/>
      <stop offset="100%" stop-color="#f2c14f" stop-opacity="0.8"/>
    </linearGradient>
  </defs>
  <rect width="360" height="360" rx="32" fill="#f3f8ff" stroke="url(#frame)" stroke-width="10"/>
  <circle cx="180" cy="180" r="150" fill="#e3f1ff" stroke="url(#frame)" stroke-width="5" opacity="0.85"/>
  <circle cx="180" cy="170" r="132" fill="none" stroke="#1fa37e" stroke-width="5" stroke-dasharray="10 12" opacity="0.48"/>
  <circle cx="180" cy="170" r="110" fill="none" stroke="rgba(15,34,51,0.16)" stroke-width="8"/>
  <circle cx="180" cy="174" r="118" fill="#f7fbff"/>

  <rect x="110" y="108" width="140" height="110" rx="12" fill="#ffffff" stroke="#bcd2e6" stroke-width="4"/>
  <rect x="120" y="120" width="120" height="70" rx="10" fill="#eef5ff"/>
  <rect x="120" y="120" width="120" height="70" rx="10" fill="url(#shine)" opacity="0.12"/>
  <rect x="132" y="130" width="96" height="46" rx="8" fill="#ffffff" stroke="#c6dbed" stroke-width="2"/>
  <circle cx="132" cy="120" r="4" fill="#1fa37e"/>
  <circle cx="180" cy="120" r="4" fill="#f2b13f"/>
  <circle cx="228" cy="120" r="4" fill="#7ad9c0"/>

  <path d="M150 196c0-16 13-29 30-29s30 13 30 29v18H150v-18z" fill="#f3f8ff" stroke="#c0d6ea" stroke-width="3"/>
  <path d="M164 182c4-7 12-12 22-12s18 5 22 12l-4 6c-4-5-10-8-18-8s-14 3-18 8l-4-6z" fill="#1fa37e" opacity="0.7"/>
  <circle cx="165" cy="172" r="6" fill="#ffffff"/>
  <circle cx="195" cy="172" r="6" fill="#ffffff"/>
  <circle cx="168" cy="170" r="3" fill="#0f2233"/>
  <circle cx="198" cy="170" r="3" fill="#0f2233"/>
  <path d="M171 188h20c0 6-4 10-10 10s-10-4-10-10z" fill="#f2c14f"/>

  <rect x="100" y="218" width="160" height="16" rx="8" fill="#eaf3fb" stroke="#c4d9ec" stroke-width="3"/>
  <rect x="126" y="234" width="108" height="10" rx="5" fill="#dceafd"/>
  <rect x="136" y="244" width="88" height="18" rx="9" fill="#f3f8ff" stroke="#c4d9ec" stroke-width="3"/>
  <rect x="168" y="244" width="24" height="18" rx="6" fill="#1fa37e"/>
  <rect x="160" y="262" width="40" height="16" rx="6" fill="#e6f0fb" stroke="#c4d9ec" stroke-width="2"/>
  <rect x="150" y="276" width="60" height="14" rx="7" fill="#eaf3fb" stroke="#c4d9ec" stroke-width="2"/>
  <rect x="124" y="288" width="112" height="12" rx="6" fill="#e3eefb" stroke="#c4d9ec" stroke-width="2"/>

  <path d="M144 142c-6-14-2-28 14-38 21-12 63-10 82 18-14-8-36-12-54-9-18 2-33 11-42 29z" fill="#1fa37e" opacity="0.18"/>
  <path d="M130 152c-9-24 0-47 28-62 37-18 95-2 112 48-20-24-54-38-85-34-28 4-47 20-55 48z" fill="#1fa37e" opacity="0.12"/>
</svg>
